<?xml version="1.0" standalone="no"?>
<svg
	viewBox="0 0 800 600"
	version="1.1"
	xmlns="http://www.w3.org/2000/svg"
	xmlns:xlink="http://www.w3.org/1999/xlink"
	stroke-linecap="round"
	stroke-linejoin="round"
	fill-rule="evenodd"
	xml:space="preserve"
>
	<defs>
		<clipPath id="clipId0">
			<path d="M0,600 800,600 800,0 0,0 z" />
		</clipPath>
	</defs>
	<g
		clip-path="url(#clipId0)"
		fill="none"
		stroke="rgb(0,0,0)"
		stroke-width="0.1"
	/>
	<g
		clip-path="url(#clipId0)"
		fill="none"
		stroke="rgb(0,0,0)"
		stroke-width="0.25"
	>
		<path
			d="M50.7353,594.118 50.7353,557.353 87.5,557.353 87.5,520.588 124.265,520.588 124.265,483.824 197.794,483.824 197.794,152.941 271.324,152.941 271.324,483.824 308.088,483.824 308.088,152.941 381.618,152.941 381.618,483.824 418.382,483.824 418.382,152.941 491.912,152.941 491.912,483.824 528.676,483.824 528.676,152.941 602.206,152.941 749.265,152.941 749.265,116.176 400,5.88235 50.7353,116.176 50.7353,152.941 602.206,152.941 602.206,483.824 675.735,483.824 675.735,520.588 712.5,520.588 712.5,557.353 749.265,557.353 749.265,594.118 50.7353,594.118 "
		/>
	</g>
</svg>
